# xmcd
#
# Track frame offsets:
#	183
#	17078
#	34950
#	53095
#
# Disc length: 1050 seconds
#
# Revision: 0
# Processed by: cddbd v1.5.2PL0 Copyright (c) Steve Scherf et al.
# Submitted via: audiograbber 1.83.01
#
DISCID=2b041804
DTITLE=Johnny Hill - Maxi
DYEAR=1994
DGENRE=Country
TTITLE0=A cute sweet love addiction ( Radio Version )
TTITLE1=A cute sweet love addiction ( Master Version )
TTITLE2=A cute sweet love addiction ( Album Version )
TTITLE3=Rub you to the right way
EXTD=
EXTT0=
EXTT1=
EXTT2=
EXTT3=
PLAYORDER=
